<?xml version="1.0" encoding="UTF-8"?>
<svg id="Layer_1" data-name="Layer 1" xmlns="http://www.w3.org/2000/svg" viewBox="0 0 83 83">
  <path d="M48.83,59.77c1.7.78,3.72.28,4.85-1.21l1.42-1.86c1.51-2.01,3.88-3.2,6.4-3.2h12c4.42,0,8,3.58,8,8v12c0,4.42-3.58,8-8,8C33.74,81.5,1.5,49.26,1.5,9.5,1.5,5.08,5.08,1.5,9.5,1.5h12c4.42,0,8,3.58,8,8v12c0,2.52-1.19,4.89-3.2,6.4l-1.87,1.4c-1.51,1.16-2,3.22-1.17,4.93,5.47,11.1,14.46,20.08,25.57,25.54" fill="none" stroke="#fff" stroke-linecap="round" stroke-linejoin="round" stroke-width="3"/>
</svg>